# xmcd
#
# Track frame offsets: 
#        150
#        15998
#        29473
#        42074
#        55604
#        72700
#        84853
#        100561
#        118923
#        133191
#        148903
#        163785
#        176796
#
# Disc length: 2544 seconds
#
# Revision: 10
# Processed by: cddbd v1.5.2PL0 Copyright (c) Steve Scherf et al.
# Submitted via: ExactAudioCopy v0.95a5
#
DISCID=b009ee0d
DTITLE=Peter Green  - Hot Foot Powder
DYEAR=2000
DGENRE=Blues
TTITLE0=I'm A Steady Rollin' Man
TTITLE1=From Four Until Late
TTITLE2=Dead Shrimp Blues
TTITLE3=Little Queen Of Spades
TTITLE4=They're Red Hot
TTITLE5=Preachin' Blues
TTITLE6=Hell Hound On My Trail
TTITLE7=Traveling Riverside Blues
TTITLE8=Malted Milk
TTITLE9=Milkcow's  Calf Blues
TTITLE10=Drunken Hearted Man
TTITLE11=Cross Road Blues
TTITLE12=Come On In My Kitchen
EXTD=Dr. John Piano \nHoneyboy Edwards Guitar \nPeter Green Guitar, Ha
EXTD=rmonica, Vocals, Producer, Slide Guitar \nBuddy Guy Guitar \nOtis
EXTD=Rush Guitar \nHubert Sumlin Guitar \nLarry Tolfree Drums \nJoe L
EXTD=ouis Walker Guitar \nNigel Watson Guitar, Vocals, Slide Guitar \n
EXTD=\n\nJL YEAR: 2000
EXTT0=
EXTT1=
EXTT2=
EXTT3=
EXTT4=
EXTT5=
EXTT6=
EXTT7=
EXTT8=
EXTT9=
EXTT10=
EXTT11=
EXTT12=
PLAYORDER=
